<!--
This file was written by a Python script, plinky_plonky_strip_maker.py.  It represents notes on a paper strip, suitable for feeding into a plinky-plonky device such as this:

https://www.ebay.co.uk/itm/397246486151

...visible in action here:

https://youtu.be/XHdWuA18UNk

For more information on the project this was part of (and to find the Python script) see here:

https://www.meades.org/misc/musical_box/musical_box.html

The original paper strip had a distance between quavers beats of 4 mm in the X axis and a step of 2 mm between each note in the Y axis (leading to a total height of 28 mm for all 15 notes (14 steps)). SVG uses only pixels, not millimetres: in this file we use 2 millimetre(s) per pixel and a speed scale factor of 0.52, so the step between notes on the Y axis is 4 pixel(s) and the distance between quavers beats on the X axis is 15.3846 pixel(s).  Note that it is a fundamental limitation of these plinky-plonky machines that you cannot play the same note more than once within a crotchet beat.  This is because the little cams that get caught on the note holes and trigger the sound need to rotate a crotchet's distance around to spring the ping.

The top and bottom margins between the edge of the paper strip and the notes on the original paper strip was 6.5 mm, therefore it is 13 pixel(s) here. In an SVG file the origin, 0/0, is at top left.  In the original paper strip there was a 30 mm run-in between the point of the black triangle at the front of the strip and the first note, therefore the X coordinate of the first note here is 60 pixel(s).  The Y coordinate of the lowest note on the original paper strip was at 6.5 mm (for the top margin) plus 28 mm (for the 15 notes), which makes it (28 + 6.5) * 2 = 69 pixel(s).
-->

<!--
This is the outline of the paper strip, so it must be 60 (for the lead-in) plus 15.3846 * the number of quavers beats wide (applying the speed scale factor of 0.52), plus 20 to give a pleasing margin, (6.5 * 2 + 28) * 2 = 82 high, with origin at 0,0.
-->
<svg width="1372.31" height="82" viewBox="0 0 1372.31 82" fill="none" xmlns="http://www.w3.org/2000/svg">

<!--
This rectangle is the outline of the paper strip, so it must be 60 (for the lead-in) plus 15.3846 * the number of quaver beats wide (applying the speed scale factor of 0.52), plus the 20 pleasing end-margin, (6.5 * 2 + 28) * 2 = 82 high, with origin at 0,0.
-->
<rect id="outline" x="0" y="0" width="1372.31" height="82" fill="lightgray"/>

<!--
As a visual aid, add horizontal lines for each note.  In the X axis these all start at 60 (i.e. after the lead-in) and are 15.3846 * the number of quaver beats long (with a speed scale factor of 0.52).  In the Y axis the top-most note will be at 13, subsequent notes at intervals of 4. The note lines are given IDs for each note, of the form c0 for lowest C, c1 for the next C, c2 for the top-most C (which is the top-most note), etc.
-->
<line id="pitch c2" x1="60" y1="13" x2="1336.923076923077" y2="13" stroke="darkblue" stroke-width="0.2"/>
<line id="pitch b1" x1="60" y1="17" x2="1336.923076923077" y2="17" stroke="darkblue" stroke-width="0.2"/>
<line id="pitch a1" x1="60" y1="21" x2="1336.923076923077" y2="21" stroke="darkblue" stroke-width="0.2"/>
<line id="pitch g1" x1="60" y1="25" x2="1336.923076923077" y2="25" stroke="darkblue" stroke-width="0.2"/>
<line id="pitch f1" x1="60" y1="29" x2="1336.923076923077" y2="29" stroke="darkblue" stroke-width="0.2"/>
<line id="pitch e1" x1="60" y1="33" x2="1336.923076923077" y2="33" stroke="darkblue" stroke-width="0.2"/>
<line id="pitch d1" x1="60" y1="37" x2="1336.923076923077" y2="37" stroke="darkblue" stroke-width="0.2"/>
<line id="pitch c1" x1="60" y1="41" x2="1336.923076923077" y2="41" stroke="darkblue" stroke-width="0.2"/>
<line id="pitch b0" x1="60" y1="45" x2="1336.923076923077" y2="45" stroke="darkblue" stroke-width="0.2"/>
<line id="pitch a0" x1="60" y1="49" x2="1336.923076923077" y2="49" stroke="darkblue" stroke-width="0.2"/>
<line id="pitch g0" x1="60" y1="53" x2="1336.923076923077" y2="53" stroke="darkblue" stroke-width="0.2"/>
<line id="pitch f0" x1="60" y1="57" x2="1336.923076923077" y2="57" stroke="darkblue" stroke-width="0.2"/>
<line id="pitch e0" x1="60" y1="61" x2="1336.923076923077" y2="61" stroke="darkblue" stroke-width="0.2"/>
<line id="pitch d0" x1="60" y1="65" x2="1336.923076923077" y2="65" stroke="darkblue" stroke-width="0.2"/>
<line id="pitch c0" x1="60" y1="69" x2="1336.923076923077" y2="69" stroke="darkblue" stroke-width="0.2"/>

<!--
As a visual aid, add vertical lines at each quaver beat: even ones (crotchets) solid, the ones in-between dotted.  In the X axis, the first solid line is at 60 (i.e. after the lead-in), the dotted line at 75.38461538461539, repeat this sequence every 30.769230769230766 (with a speed scale factor of 0.52).  In the Y axis all beat lines start at 13 (for the top margin) and end at (6.5 + 28) * 2 = 69.
-->
<line id="quaver beat 0" x1="60" y1="13" x2="60" y2="69" stroke="darkblue" stroke-width="0.2"/>
<line id="quaver beat 1" x1="75.38461538461539" y1="13" x2="75.38461538461539" y2="69" stroke="darkblue" stroke-width="0.2" stroke-dasharray="15.384615384615383"/>
<line id="quaver beat 2" x1="90.76923076923077" y1="13" x2="90.76923076923077" y2="69" stroke="darkblue" stroke-width="0.2"/>
<line id="quaver beat 3" x1="106.15384615384616" y1="13" x2="106.15384615384616" y2="69" stroke="darkblue" stroke-width="0.2" stroke-dasharray="15.384615384615383"/>
<line id="quaver beat 4" x1="121.53846153846155" y1="13" x2="121.53846153846155" y2="69" stroke="darkblue" stroke-width="0.2"/>
<line id="quaver beat 5" x1="136.92307692307693" y1="13" x2="136.92307692307693" y2="69" stroke="darkblue" stroke-width="0.2" stroke-dasharray="15.384615384615383"/>
<line id="quaver beat 6" x1="152.30769230769232" y1="13" x2="152.30769230769232" y2="69" stroke="darkblue" stroke-width="0.2"/>
<line id="quaver beat 7" x1="167.6923076923077" y1="13" x2="167.6923076923077" y2="69" stroke="darkblue" stroke-width="0.2" stroke-dasharray="15.384615384615383"/>
<line id="quaver beat 8" x1="183.0769230769231" y1="13" x2="183.0769230769231" y2="69" stroke="darkblue" stroke-width="0.2"/>
<line id="quaver beat 9" x1="198.46153846153848" y1="13" x2="198.46153846153848" y2="69" stroke="darkblue" stroke-width="0.2" stroke-dasharray="15.384615384615383"/>
<line id="quaver beat 10" x1="213.84615384615387" y1="13" x2="213.84615384615387" y2="69" stroke="darkblue" stroke-width="0.2"/>
<line id="quaver beat 11" x1="229.23076923076925" y1="13" x2="229.23076923076925" y2="69" stroke="darkblue" stroke-width="0.2" stroke-dasharray="15.384615384615383"/>
<line id="quaver beat 12" x1="244.61538461538464" y1="13" x2="244.61538461538464" y2="69" stroke="darkblue" stroke-width="0.2"/>
<line id="quaver beat 13" x1="260.0" y1="13" x2="260.0" y2="69" stroke="darkblue" stroke-width="0.2" stroke-dasharray="15.384615384615383"/>
<line id="quaver beat 14" x1="275.38461538461536" y1="13" x2="275.38461538461536" y2="69" stroke="darkblue" stroke-width="0.2"/>
<line id="quaver beat 15" x1="290.7692307692307" y1="13" x2="290.7692307692307" y2="69" stroke="darkblue" stroke-width="0.2" stroke-dasharray="15.384615384615383"/>
<line id="quaver beat 16" x1="306.1538461538461" y1="13" x2="306.1538461538461" y2="69" stroke="darkblue" stroke-width="0.2"/>
<line id="quaver beat 17" x1="321.53846153846143" y1="13" x2="321.53846153846143" y2="69" stroke="darkblue" stroke-width="0.2" stroke-dasharray="15.384615384615383"/>
<line id="quaver beat 18" x1="336.9230769230768" y1="13" x2="336.9230769230768" y2="69" stroke="darkblue" stroke-width="0.2"/>
<line id="quaver beat 19" x1="352.30769230769215" y1="13" x2="352.30769230769215" y2="69" stroke="darkblue" stroke-width="0.2" stroke-dasharray="15.384615384615383"/>
<line id="quaver beat 20" x1="367.6923076923075" y1="13" x2="367.6923076923075" y2="69" stroke="darkblue" stroke-width="0.2"/>
<line id="quaver beat 21" x1="383.07692307692287" y1="13" x2="383.07692307692287" y2="69" stroke="darkblue" stroke-width="0.2" stroke-dasharray="15.384615384615383"/>
<line id="quaver beat 22" x1="398.4615384615382" y1="13" x2="398.4615384615382" y2="69" stroke="darkblue" stroke-width="0.2"/>
<line id="quaver beat 23" x1="413.8461538461536" y1="13" x2="413.8461538461536" y2="69" stroke="darkblue" stroke-width="0.2" stroke-dasharray="15.384615384615383"/>
<line id="quaver beat 24" x1="429.23076923076894" y1="13" x2="429.23076923076894" y2="69" stroke="darkblue" stroke-width="0.2"/>
<line id="quaver beat 25" x1="444.6153846153843" y1="13" x2="444.6153846153843" y2="69" stroke="darkblue" stroke-width="0.2" stroke-dasharray="15.384615384615383"/>
<line id="quaver beat 26" x1="459.99999999999966" y1="13" x2="459.99999999999966" y2="69" stroke="darkblue" stroke-width="0.2"/>
<line id="quaver beat 27" x1="475.384615384615" y1="13" x2="475.384615384615" y2="69" stroke="darkblue" stroke-width="0.2" stroke-dasharray="15.384615384615383"/>
<line id="quaver beat 28" x1="490.7692307692304" y1="13" x2="490.7692307692304" y2="69" stroke="darkblue" stroke-width="0.2"/>
<line id="quaver beat 29" x1="506.15384615384573" y1="13" x2="506.15384615384573" y2="69" stroke="darkblue" stroke-width="0.2" stroke-dasharray="15.384615384615383"/>
<line id="quaver beat 30" x1="521.5384615384611" y1="13" x2="521.5384615384611" y2="69" stroke="darkblue" stroke-width="0.2"/>
<line id="quaver beat 31" x1="536.9230769230765" y1="13" x2="536.9230769230765" y2="69" stroke="darkblue" stroke-width="0.2" stroke-dasharray="15.384615384615383"/>
<line id="quaver beat 32" x1="552.3076923076918" y1="13" x2="552.3076923076918" y2="69" stroke="darkblue" stroke-width="0.2"/>
<line id="quaver beat 33" x1="567.6923076923072" y1="13" x2="567.6923076923072" y2="69" stroke="darkblue" stroke-width="0.2" stroke-dasharray="15.384615384615383"/>
<line id="quaver beat 34" x1="583.0769230769225" y1="13" x2="583.0769230769225" y2="69" stroke="darkblue" stroke-width="0.2"/>
<line id="quaver beat 35" x1="598.4615384615379" y1="13" x2="598.4615384615379" y2="69" stroke="darkblue" stroke-width="0.2" stroke-dasharray="15.384615384615383"/>
<line id="quaver beat 36" x1="613.8461538461532" y1="13" x2="613.8461538461532" y2="69" stroke="darkblue" stroke-width="0.2"/>
<line id="quaver beat 37" x1="629.2307692307686" y1="13" x2="629.2307692307686" y2="69" stroke="darkblue" stroke-width="0.2" stroke-dasharray="15.384615384615383"/>
<line id="quaver beat 38" x1="644.615384615384" y1="13" x2="644.615384615384" y2="69" stroke="darkblue" stroke-width="0.2"/>
<line id="quaver beat 39" x1="659.9999999999993" y1="13" x2="659.9999999999993" y2="69" stroke="darkblue" stroke-width="0.2" stroke-dasharray="15.384615384615383"/>
<line id="quaver beat 40" x1="675.3846153846147" y1="13" x2="675.3846153846147" y2="69" stroke="darkblue" stroke-width="0.2"/>
<line id="quaver beat 41" x1="690.76923076923" y1="13" x2="690.76923076923" y2="69" stroke="darkblue" stroke-width="0.2" stroke-dasharray="15.384615384615383"/>
<line id="quaver beat 42" x1="706.1538461538454" y1="13" x2="706.1538461538454" y2="69" stroke="darkblue" stroke-width="0.2"/>
<line id="quaver beat 43" x1="721.5384615384608" y1="13" x2="721.5384615384608" y2="69" stroke="darkblue" stroke-width="0.2" stroke-dasharray="15.384615384615383"/>
<line id="quaver beat 44" x1="736.9230769230761" y1="13" x2="736.9230769230761" y2="69" stroke="darkblue" stroke-width="0.2"/>
<line id="quaver beat 45" x1="752.3076923076915" y1="13" x2="752.3076923076915" y2="69" stroke="darkblue" stroke-width="0.2" stroke-dasharray="15.384615384615383"/>
<line id="quaver beat 46" x1="767.6923076923068" y1="13" x2="767.6923076923068" y2="69" stroke="darkblue" stroke-width="0.2"/>
<line id="quaver beat 47" x1="783.0769230769222" y1="13" x2="783.0769230769222" y2="69" stroke="darkblue" stroke-width="0.2" stroke-dasharray="15.384615384615383"/>
<line id="quaver beat 48" x1="798.4615384615375" y1="13" x2="798.4615384615375" y2="69" stroke="darkblue" stroke-width="0.2"/>
<line id="quaver beat 49" x1="813.8461538461529" y1="13" x2="813.8461538461529" y2="69" stroke="darkblue" stroke-width="0.2" stroke-dasharray="15.384615384615383"/>
<line id="quaver beat 50" x1="829.2307692307683" y1="13" x2="829.2307692307683" y2="69" stroke="darkblue" stroke-width="0.2"/>
<line id="quaver beat 51" x1="844.6153846153836" y1="13" x2="844.6153846153836" y2="69" stroke="darkblue" stroke-width="0.2" stroke-dasharray="15.384615384615383"/>
<line id="quaver beat 52" x1="859.999999999999" y1="13" x2="859.999999999999" y2="69" stroke="darkblue" stroke-width="0.2"/>
<line id="quaver beat 53" x1="875.3846153846143" y1="13" x2="875.3846153846143" y2="69" stroke="darkblue" stroke-width="0.2" stroke-dasharray="15.384615384615383"/>
<line id="quaver beat 54" x1="890.7692307692297" y1="13" x2="890.7692307692297" y2="69" stroke="darkblue" stroke-width="0.2"/>
<line id="quaver beat 55" x1="906.153846153845" y1="13" x2="906.153846153845" y2="69" stroke="darkblue" stroke-width="0.2" stroke-dasharray="15.384615384615383"/>
<line id="quaver beat 56" x1="921.5384615384604" y1="13" x2="921.5384615384604" y2="69" stroke="darkblue" stroke-width="0.2"/>
<line id="quaver beat 57" x1="936.9230769230758" y1="13" x2="936.9230769230758" y2="69" stroke="darkblue" stroke-width="0.2" stroke-dasharray="15.384615384615383"/>
<line id="quaver beat 58" x1="952.3076923076911" y1="13" x2="952.3076923076911" y2="69" stroke="darkblue" stroke-width="0.2"/>
<line id="quaver beat 59" x1="967.6923076923065" y1="13" x2="967.6923076923065" y2="69" stroke="darkblue" stroke-width="0.2" stroke-dasharray="15.384615384615383"/>
<line id="quaver beat 60" x1="983.0769230769218" y1="13" x2="983.0769230769218" y2="69" stroke="darkblue" stroke-width="0.2"/>
<line id="quaver beat 61" x1="998.4615384615372" y1="13" x2="998.4615384615372" y2="69" stroke="darkblue" stroke-width="0.2" stroke-dasharray="15.384615384615383"/>
<line id="quaver beat 62" x1="1013.8461538461526" y1="13" x2="1013.8461538461526" y2="69" stroke="darkblue" stroke-width="0.2"/>
<line id="quaver beat 63" x1="1029.230769230768" y1="13" x2="1029.230769230768" y2="69" stroke="darkblue" stroke-width="0.2" stroke-dasharray="15.384615384615383"/>
<line id="quaver beat 64" x1="1044.6153846153834" y1="13" x2="1044.6153846153834" y2="69" stroke="darkblue" stroke-width="0.2"/>
<line id="quaver beat 65" x1="1059.9999999999989" y1="13" x2="1059.9999999999989" y2="69" stroke="darkblue" stroke-width="0.2" stroke-dasharray="15.384615384615383"/>
<line id="quaver beat 66" x1="1075.3846153846143" y1="13" x2="1075.3846153846143" y2="69" stroke="darkblue" stroke-width="0.2"/>
<line id="quaver beat 67" x1="1090.7692307692298" y1="13" x2="1090.7692307692298" y2="69" stroke="darkblue" stroke-width="0.2" stroke-dasharray="15.384615384615383"/>
<line id="quaver beat 68" x1="1106.1538461538453" y1="13" x2="1106.1538461538453" y2="69" stroke="darkblue" stroke-width="0.2"/>
<line id="quaver beat 69" x1="1121.5384615384608" y1="13" x2="1121.5384615384608" y2="69" stroke="darkblue" stroke-width="0.2" stroke-dasharray="15.384615384615383"/>
<line id="quaver beat 70" x1="1136.9230769230762" y1="13" x2="1136.9230769230762" y2="69" stroke="darkblue" stroke-width="0.2"/>
<line id="quaver beat 71" x1="1152.3076923076917" y1="13" x2="1152.3076923076917" y2="69" stroke="darkblue" stroke-width="0.2" stroke-dasharray="15.384615384615383"/>
<line id="quaver beat 72" x1="1167.6923076923072" y1="13" x2="1167.6923076923072" y2="69" stroke="darkblue" stroke-width="0.2"/>
<line id="quaver beat 73" x1="1183.0769230769226" y1="13" x2="1183.0769230769226" y2="69" stroke="darkblue" stroke-width="0.2" stroke-dasharray="15.384615384615383"/>
<line id="quaver beat 74" x1="1198.461538461538" y1="13" x2="1198.461538461538" y2="69" stroke="darkblue" stroke-width="0.2"/>
<line id="quaver beat 75" x1="1213.8461538461536" y1="13" x2="1213.8461538461536" y2="69" stroke="darkblue" stroke-width="0.2" stroke-dasharray="15.384615384615383"/>
<line id="quaver beat 76" x1="1229.230769230769" y1="13" x2="1229.230769230769" y2="69" stroke="darkblue" stroke-width="0.2"/>
<line id="quaver beat 77" x1="1244.6153846153845" y1="13" x2="1244.6153846153845" y2="69" stroke="darkblue" stroke-width="0.2" stroke-dasharray="15.384615384615383"/>
<line id="quaver beat 78" x1="1260.0" y1="13" x2="1260.0" y2="69" stroke="darkblue" stroke-width="0.2"/>
<line id="quaver beat 79" x1="1275.3846153846155" y1="13" x2="1275.3846153846155" y2="69" stroke="darkblue" stroke-width="0.2" stroke-dasharray="15.384615384615383"/>
<line id="quaver beat 80" x1="1290.769230769231" y1="13" x2="1290.769230769231" y2="69" stroke="darkblue" stroke-width="0.2"/>
<line id="quaver beat 81" x1="1306.1538461538464" y1="13" x2="1306.1538461538464" y2="69" stroke="darkblue" stroke-width="0.2" stroke-dasharray="15.384615384615383"/>
<line id="quaver beat 82" x1="1321.538461538462" y1="13" x2="1321.538461538462" y2="69" stroke="darkblue" stroke-width="0.2"/>
<line id="quaver beat 83" x1="1336.9230769230774" y1="13" x2="1336.9230769230774" y2="69" stroke="darkblue" stroke-width="0.2" stroke-dasharray="15.384615384615383"/>

<!--
The original paper strip had a triangular pointer on the front, which is maintained here.  It is within the lead-in and is the same size as the notes on the original paper strip.
-->
<polygon id="arrow" points="30,41 34,39, 34,43" fill="darkblue"/>

<!--
It is useful to have a marker in the bottom left of the paper strip, after the lead-in, at the bottom of the Y axis and where the first note could occur in the X axis.  Make it a triangle of the same dimension as the diameter of the notes on the original paper strip, but narrower to avoid confusion with the forward-facing arrow.
-->
<polygon id="marker_bottom_left" points="59,80 61,80, 60,82" fill="darkblue"/>

<!--
And finally, the important part: the notes.  In the original paper strip notes were 2 mm in diameter; here they are 2 mm in diameter and therefore are 2 pixel(s) in radius.
-->
<circle id="note 0 c0" cx="60" cy="69" r="2" fill="black"/>
<circle id="note 2 g0" cx="75.3846" cy="53" r="2" fill="black"/>
<circle id="note 4 e1" cx="90.7692" cy="33" r="2" fill="black"/>
<circle id="note 6 g0" cx="106.154" cy="53" r="2" fill="black"/>
<circle id="note 8 c1" cx="121.538" cy="41" r="2" fill="black"/>
<circle id="note 10 g0" cx="136.923" cy="53" r="2" fill="black"/>
<circle id="note 13 a1" cx="144.615" cy="21" r="2" fill="black"/>
<circle id="note 16 g1" cx="167.692" cy="25" r="2" fill="black"/>
<circle id="note 17 c0" cx="167.692" cy="69" r="2" fill="black"/>
<circle id="note 19 g0" cx="183.077" cy="53" r="2" fill="black"/>
<circle id="note 21 f1" cx="198.462" cy="29" r="2" fill="black"/>
<circle id="note 23 g0" cx="213.846" cy="53" r="2" fill="black"/>
<circle id="note 25 d1" cx="229.231" cy="37" r="2" fill="black"/>
<circle id="note 27 g0" cx="244.615" cy="53" r="2" fill="black"/>
<circle id="note 30 a1" cx="252.308" cy="21" r="2" fill="black"/>
<circle id="note 33 g1" cx="275.385" cy="25" r="2" fill="black"/>
<circle id="note 34 c0" cx="275.385" cy="69" r="2" fill="black"/>
<circle id="note 36 g0" cx="290.769" cy="53" r="2" fill="black"/>
<circle id="note 38 e1" cx="306.154" cy="33" r="2" fill="black"/>
<circle id="note 40 g0" cx="321.538" cy="53" r="2" fill="black"/>
<circle id="note 42 c1" cx="336.923" cy="41" r="2" fill="black"/>
<circle id="note 44 g0" cx="352.308" cy="53" r="2" fill="black"/>
<circle id="note 47 a1" cx="360" cy="21" r="2" fill="black"/>
<circle id="note 50 c0" cx="383.077" cy="69" r="2" fill="black"/>
<circle id="note 51 g1" cx="383.077" cy="25" r="2" fill="black"/>
<circle id="note 53 f1" cx="398.462" cy="29" r="2" fill="black"/>
<circle id="note 55 d1" cx="413.846" cy="37" r="2" fill="black"/>
<circle id="note 57 b0" cx="429.231" cy="45" r="2" fill="black"/>
<circle id="note 60 c0" cx="460" cy="69" r="2" fill="black"/>
<circle id="note 61 g0" cx="460" cy="53" r="2" fill="black"/>
<circle id="note 63 g0" cx="475.385" cy="53" r="2" fill="black"/>
<circle id="note 65 e1" cx="490.769" cy="33" r="2" fill="black"/>
<circle id="note 67 g0" cx="506.154" cy="53" r="2" fill="black"/>
<circle id="note 69 c1" cx="521.538" cy="41" r="2" fill="black"/>
<circle id="note 71 g0" cx="536.923" cy="53" r="2" fill="black"/>
<circle id="note 74 g0" cx="567.692" cy="53" r="2" fill="black"/>
<circle id="note 75 b0" cx="567.692" cy="45" r="2" fill="black"/>
<circle id="note 76 f1" cx="567.692" cy="29" r="2" fill="black"/>
<circle id="note 77 g1" cx="567.692" cy="25" r="2" fill="black"/>
<circle id="note 79 d1" cx="583.077" cy="37" r="2" fill="black"/>
<circle id="note 81 e1" cx="598.462" cy="33" r="2" fill="black"/>
<circle id="note 83 c1" cx="613.846" cy="41" r="2" fill="black"/>
<circle id="note 85 d1" cx="629.231" cy="37" r="2" fill="black"/>
<circle id="note 87 b0" cx="644.615" cy="45" r="2" fill="black"/>
<circle id="note 90 g0" cx="675.385" cy="53" r="2" fill="black"/>
<circle id="note 91 d1" cx="675.385" cy="37" r="2" fill="black"/>
<circle id="note 92 g1" cx="675.385" cy="25" r="2" fill="black"/>
<circle id="note 93 b1" cx="675.385" cy="17" r="2" fill="black"/>
<circle id="note 95 e1" cx="690.769" cy="33" r="2" fill="black"/>
<circle id="note 97 f1" cx="706.154" cy="29" r="2" fill="black"/>
<circle id="note 98 a1" cx="706.154" cy="21" r="2" fill="black"/>
<circle id="note 100 g0" cx="721.538" cy="53" r="2" fill="black"/>
<circle id="note 102 a0" cx="736.923" cy="49" r="2" fill="black"/>
<circle id="note 103 g1" cx="736.923" cy="25" r="2" fill="black"/>
<circle id="note 105 b0" cx="752.308" cy="45" r="2" fill="black"/>
<circle id="note 108 c0" cx="783.077" cy="69" r="2" fill="black"/>
<circle id="note 109 c1" cx="783.077" cy="41" r="2" fill="black"/>
<circle id="note 110 e1" cx="783.077" cy="33" r="2" fill="black"/>
<circle id="note 112 g0" cx="798.462" cy="53" r="2" fill="black"/>
<circle id="note 114 c1" cx="813.846" cy="41" r="2" fill="black"/>
<circle id="note 116 d1" cx="829.231" cy="37" r="2" fill="black"/>
<circle id="note 117 f1" cx="829.231" cy="29" r="2" fill="black"/>
<circle id="note 119 e1" cx="844.615" cy="33" r="2" fill="black"/>
<circle id="note 120 g1" cx="844.615" cy="25" r="2" fill="black"/>
<circle id="note 122 c1" cx="860" cy="41" r="2" fill="black"/>
<circle id="note 125 g0" cx="890.769" cy="53" r="2" fill="black"/>
<circle id="note 126 g1" cx="890.769" cy="25" r="2" fill="black"/>
<circle id="note 128 c1" cx="906.154" cy="41" r="2" fill="black"/>
<circle id="note 130 e1" cx="921.538" cy="33" r="2" fill="black"/>
<circle id="note 132 g0" cx="936.923" cy="53" r="2" fill="black"/>
<circle id="note 134 c1" cx="952.308" cy="41" r="2" fill="black"/>
<circle id="note 136 g0" cx="967.692" cy="53" r="2" fill="black"/>
<circle id="note 139 g0" cx="998.462" cy="53" r="2" fill="black"/>
<circle id="note 140 b0" cx="998.462" cy="45" r="2" fill="black"/>
<circle id="note 142 d1" cx="1013.85" cy="37" r="2" fill="black"/>
<circle id="note 144 f1" cx="1029.23" cy="29" r="2" fill="black"/>
<circle id="note 146 g0" cx="1044.62" cy="53" r="2" fill="black"/>
<circle id="note 147 c1" cx="1044.62" cy="41" r="2" fill="black"/>
<circle id="note 149 d1" cx="1060" cy="37" r="2" fill="black"/>
<circle id="note 151 g1" cx="1075.38" cy="25" r="2" fill="black"/>
<circle id="note 154 b0" cx="1106.15" cy="45" r="2" fill="black"/>
<circle id="note 155 b1" cx="1106.15" cy="17" r="2" fill="black"/>
<circle id="note 156 d1" cx="1106.15" cy="37" r="2" fill="black"/>
<circle id="note 158 e1" cx="1121.54" cy="33" r="2" fill="black"/>
<circle id="note 160 f1" cx="1136.92" cy="29" r="2" fill="black"/>
<circle id="note 161 a1" cx="1136.92" cy="21" r="2" fill="black"/>
<circle id="note 163 g0" cx="1152.31" cy="53" r="2" fill="black"/>
<circle id="note 165 b0" cx="1167.69" cy="45" r="2" fill="black"/>
<circle id="note 166 g1" cx="1167.69" cy="25" r="2" fill="black"/>
<circle id="note 168 g0" cx="1183.08" cy="53" r="2" fill="black"/>
<circle id="note 169 d1" cx="1183.08" cy="37" r="2" fill="black"/>
<circle id="note 172 c0" cx="1213.85" cy="69" r="2" fill="black"/>
<circle id="note 173 d1" cx="1213.85" cy="37" r="2" fill="black"/>
<circle id="note 175 g0" cx="1229.23" cy="53" r="2" fill="black"/>
<circle id="note 176 c1" cx="1229.23" cy="41" r="2" fill="black"/>
<circle id="note 178 e1" cx="1244.62" cy="33" r="2" fill="black"/>
<circle id="note 180 g0" cx="1260" cy="53" r="2" fill="black"/>
<circle id="note 182 c0" cx="1275.38" cy="69" r="2" fill="black"/>

</svg>
